<?xml version="1.0" standalone="no"?>
<!DOCTYPE svg PUBLIC "-//W3C//DTD SVG 20010904//EN"
 "http://www.w3.org/TR/2001/REC-SVG-20010904/DTD/svg10.dtd">
<svg version="1.0" xmlns="http://www.w3.org/2000/svg"
 width="257.000000pt" height="250.000000pt" viewBox="0 0 257.000000 250.000000"
 preserveAspectRatio="xMidYMid meet">

<g transform="translate(0.000000,250.000000) scale(0.100000,-0.100000)"
fill="#000000" stroke="none">
<path d="M1224 2086 c-50 -16 -124 -67 -151 -104 -36 -50 -37 -53 -10 -47 18
5 28 2 35 -12 9 -16 13 -11 32 32 12 27 27 53 33 57 7 4 76 8 154 8 158 0 160
-1 182 -68 12 -35 16 -39 28 -26 16 16 32 18 52 5 17 -11 6 -30 -26 -42 l-25
-9 26 -31 c14 -17 29 -42 32 -56 7 -25 -3 -149 -12 -165 -3 -4 -21 -8 -40 -8
-27 0 -34 4 -34 20 0 19 -7 20 -185 20 -178 0 -185 -1 -185 -20 0 -17 -7 -20
-39 -20 -38 0 -38 0 -45 46 -14 102 -8 141 25 179 l31 35 -28 11 c-16 5 -32
15 -35 21 -13 20 -34 -68 -33 -137 3 -276 345 -414 541 -218 118 118 124 310
14 435 -60 68 -130 101 -221 105 -45 2 -92 -3 -116 -11z"/>
<path d="M1185 2003 c-14 -3 -26 -19 -38 -52 -9 -27 -17 -51 -17 -55 0 -3 83
-6 185 -6 102 0 185 1 185 3 0 2 -7 25 -16 51 -11 33 -24 50 -41 57 -23 9
-217 11 -258 2z"/>
<path d="M1066 1812 c-18 -29 31 -72 80 -72 27 0 13 35 -21 58 -37 24 -51 27
-59 14z"/>
<path d="M1506 1800 c-56 -36 -61 -65 -10 -57 45 8 64 23 64 53 0 28 -14 29
-54 4z"/>
<path d="M1207 1773 c-3 -5 -1 -18 4 -30 8 -22 14 -23 103 -23 86 0 95 2 101
20 3 11 3 24 0 30 -7 12 -202 14 -208 3z"/>
<path d="M1074 1709 c-3 -6 -2 -15 2 -19 12 -12 38 5 30 19 -9 14 -23 14 -32
0z"/>
<path d="M1132 1704 c4 -21 22 -23 26 -1 2 10 -3 17 -13 17 -10 0 -15 -6 -13
-16z"/>
<path d="M1470 1706 c0 -8 4 -17 8 -20 13 -8 35 11 28 23 -10 16 -36 14 -36
-3z"/>
<path d="M1526 1711 c-7 -11 18 -33 27 -24 4 3 7 12 7 20 0 15 -26 18 -34 4z"/>
<path d="M1273 1703 c26 -2 67 -2 90 0 23 2 2 3 -48 3 -49 0 -68 -1 -42 -3z"/>
<path d="M1045 868 c-7 -19 -85 -357 -85 -368 0 -6 13 -10 29 -10 32 0 32 0
52 92 12 55 13 57 51 63 49 9 74 36 93 99 32 107 15 136 -76 136 -39 0 -61 -4
-64 -12z m82 -89 c-7 -55 -20 -79 -44 -79 -11 0 -14 7 -9 28 22 87 28 102 43
102 13 0 15 -8 10 -51z"/>
<path d="M1261 852 c-23 -22 -34 -51 -55 -140 -32 -138 -34 -197 -7 -212 35
-18 79 -12 111 18 26 23 35 46 60 147 45 184 40 215 -36 215 -36 0 -51 -6 -73
-28z m73 -30 c6 -10 -42 -229 -55 -254 -12 -21 -39 -24 -39 -4 0 24 50 227 61
247 10 20 24 25 33 11z"/>
<path d="M1477 852 c-20 -21 -33 -56 -57 -152 -16 -68 -30 -134 -30 -145 0
-88 134 -86 168 2 21 55 55 209 56 256 1 56 -10 67 -70 67 -31 0 -46 -6 -67
-28z m73 -46 c0 -25 -42 -205 -55 -238 -10 -24 -35 -23 -35 2 0 37 42 215 56
238 19 29 34 28 34 -2z"/>
<path d="M1655 763 c-15 -65 -35 -150 -45 -190 -10 -40 -15 -74 -12 -77 3 -4
33 -6 68 -6 47 0 63 4 68 16 13 34 7 44 -30 44 -29 0 -34 3 -30 18 3 9 21 83
39 165 l34 147 -33 0 -32 0 -27 -117z"/>
</g>
</svg>
